HIERARCHY
ROOT Hips
{
	OFFSET 0.000000 0.000000 0.000000
	CHANNELS 6 Xposition Yposition Zposition Zrotation Yrotation Xrotation 
	JOINT LHipJoint
	{
		OFFSET 0.000000 0.000000 0.000000
		CHANNELS 3 Zrotation Yrotation Xrotation
		JOINT LeftUpLeg
		{
			OFFSET 1.363060 -1.794630 0.839290
			CHANNELS 3 Zrotation Yrotation Xrotation
			JOINT LeftLeg
			{
				OFFSET 2.448110 -6.726130 0.000000
				CHANNELS 3 Zrotation Yrotation Xrotation
				JOINT LeftFoot
				{
					OFFSET 2.562200 -7.039590 0.000000
					CHANNELS 3 Zrotation Yrotation Xrotation
					JOINT LeftToeBase
					{
						OFFSET 0.157640 -0.433110 2.322550
						CHANNELS 3 Zrotation Yrotation Xrotation
						End Site
						{
							OFFSET 0.000000 0.000000 0.000000
						}
					}
				}
			}
		}
	}
	JOINT RHipJoint
	{
		OFFSET 0.000000 0.000000 0.000000
		CHANNELS 3 Zrotation Yrotation Xrotation
		JOINT RightUpLeg
		{
			OFFSET -1.305520 -1.794630 0.839290
			CHANNELS 3 Zrotation Yrotation Xrotation
			JOINT RightLeg
			{
				OFFSET -2.542530 -6.985550 0.000000
				CHANNELS 3 Zrotation Yrotation Xrotation
				JOINT RightFoot
				{
					OFFSET -2.568260 -7.056230 0.000000
					CHANNELS 3 Zrotation Yrotation Xrotation
					JOINT RightToeBase
					{
						OFFSET -0.164730 -0.452590 2.363150
						CHANNELS 3 Zrotation Yrotation Xrotation
						End Site
						{
							OFFSET 0.000000 0.000000 0.000000
						}
					}
				}
			}
		}
	}
}
MOTION
Frames: 31
Frame Time: 0.008333
9.294928 18.614776 2.123680 61.476348 -89.253165 -11.697970 -9.757464 -0.281114 1.981026 -11.133195 1.196518 -71.778103 -0.742099 3.456767 48.661063 2.290822 12.674171 16.294680 5.789300 0.000000 -55.330600 9.941752 0.955575 1.311094 11.510718 -6.106824 -75.514412 1.069652 -5.771125 54.647164 -0.731767 -3.377010 10.715349 -1.686299 -0.000000 -79.733401
9.206216 18.681173 2.113049 59.030014 -89.073140 -8.487981 -9.665713 -0.331752 2.056703 -11.459393 0.533031 -74.076196 -0.772666 3.657798 49.475042 2.345693 12.862081 14.918306 5.693900 0.000000 -55.535800 9.847228 1.067898 1.477125 11.357019 -5.705082 -77.892383 1.124077 -5.992586 55.291444 -0.738416 -3.377560 9.144749 -1.642600 -0.000000 -79.510900
9.118564 18.738661 2.102694 57.054744 -88.877153 -5.727800 -9.571990 -0.380834 2.125929 -11.760504 -0.181975 -76.349298 -0.815125 3.846605 50.094771 2.388189 12.951481 13.664896 5.570700 0.000000 -55.765000 9.759021 1.170845 1.643660 11.147262 -5.302031 -80.248607 1.199859 -6.204528 55.714748 -0.723543 -3.246983 7.784762 -1.563400 0.000000 -79.228900
9.031196 18.788082 2.092422 55.649407 -88.677806 -3.527474 -9.476978 -0.429791 2.183633 -12.035358 -0.924705 -78.568059 -0.870502 4.019266 50.496762 2.413980 12.945203 12.642058 5.446101 0.000000 -55.977600 9.679310 1.263038 1.811387 10.879830 -4.894872 -82.563916 1.292995 -6.402522 55.910491 -0.689285 -3.021369 6.716695 -1.471299 0.000000 -79.002800
8.943038 18.829891 2.081997 54.882699 -88.490993 -1.959533 -9.381949 -0.475952 2.225763 -12.287193 -1.674005 -80.707600 -0.941068 4.173218 50.662457 2.419151 12.849623 11.916201 5.340699 -0.000000 -56.156600 9.610540 1.344748 1.980802 10.552629 -4.477167 -84.821157 1.399366 -6.580946 55.880726 -0.637236 -2.729714 5.973957 -1.379800 0.000000 -78.828700
8.853198 18.863989 2.071116 54.802097 -88.325058 -1.079217 -9.289088 -0.519647 2.249889 -12.523420 -2.412563 -82.739950 -1.029367 4.306116 50.579502 2.400727 12.671336 11.508947 5.263700 -0.000000 -56.313300 9.553613 1.413928 2.153643 10.162451 -4.047494 -87.002676 1.516956 -6.736045 55.631635 -0.569098 -2.392588 5.547954 -1.294000 -0.000000 -78.733800
8.761019 18.890288 2.059604 55.426703 -88.185472 -0.914721 -9.200760 -0.560460 2.255360 -12.750282 -3.129029 -84.639117 -1.138432 4.415999 50.240339 2.357185 12.415732 11.401786 5.213500 0.000000 -56.492900 9.508539 1.469366 2.330638 9.708530 -3.606456 -89.089408 1.645227 -6.863516 55.167100 -0.486326 -2.022529 5.406397 -1.213100 -0.000000 -78.790500
8.665640 18.908369 2.047124 56.858951 -88.073948 -1.572012 -9.119568 -0.596962 2.244007 -12.976555 -3.816584 -86.385432 -1.272241 4.501931 49.646569 2.287396 12.080372 11.534014 5.175600 0.000000 -56.678200 9.475602 1.509558 2.513383 9.190423 -3.156704 -91.066779 1.784960 -6.960308 54.501338 -0.388327 -1.613381 5.473286 -1.128400 -0.000000 -78.855400
8.566641 18.917384 2.033616 59.127719 -87.988527 -3.084918 -9.048618 -0.627862 2.220165 -13.203984 -4.474328 -87.964496 -1.433954 4.562769 48.803640 2.192019 11.664261 11.830082 5.132100 0.000000 -56.925600 9.453346 1.534403 2.702048 8.613141 -2.704228 -92.920634 1.938225 -7.023117 53.640731 -0.274788 -1.159062 5.677792 -1.031800 -0.000000 -79.039600
8.463619 18.916351 2.018901 62.330661 -87.924044 -5.553694 -8.990782 -0.651469 2.190180 -13.433682 -5.103822 -89.371873 -1.626647 4.598273 47.725619 2.071678 11.160800 12.199596 5.061300 0.000000 -57.216400 9.440288 1.544364 2.897312 7.983181 -2.255738 -94.643127 2.107240 -7.050203 52.600540 -0.143832 -0.643150 5.931864 -0.912900 0.000001 -79.231100
8.356491 18.904771 2.002945 66.487681 -87.874347 -9.000139 -8.948308 -0.665311 2.162268 -13.659849 -5.708692 -90.612114 -1.851920 4.607966 46.430803 1.928100 10.567192 12.562361 4.946401 -0.000000 -57.551800 9.434419 1.542027 3.098909 7.312850 -1.817917 -96.229826 2.294227 -7.040359 51.394013 0.005983 -0.053757 6.165133 -0.764700 0.000000 -79.403000
8.245250 18.881739 1.985922 71.491390 -87.834359 -13.316003 -8.921536 -0.666110 2.145861 -13.869293 -6.293362 -91.699414 -2.109282 4.590560 44.939874 1.764040 9.887376 12.863296 4.779500 0.000000 -57.967500 9.434585 1.532031 3.305668 6.621220 -1.396570 -97.680548 2.501312 -6.993567 50.033678 0.175067 0.613023 6.332471 -0.585300 0.000000 -79.591900
8.130086 18.846911 1.967749 77.229216 -87.798323 -18.390271 -8.907651 -0.650508 2.148198 -14.052857 -6.858559 -92.651819 -2.397177 4.545043 43.279008 1.582075 9.127590 13.067993 4.559400 0.000000 -58.373500 9.441771 1.520421 3.516376 5.927122 -0.997395 -99.000814 2.728613 -6.912085 48.542970 0.362991 1.356662 6.407014 -0.375700 0.000000 -79.649100
8.011244 18.800069 1.949329 83.042251 -87.769795 -23.555851 -8.902329 -0.618846 2.179503 -14.176475 -7.409681 -93.504839 -2.708144 4.467177 41.466082 1.387482 8.315348 13.211865 4.304400 0.000000 -59.002800 9.458045 1.509750 3.729557 5.267267 -0.618493 -100.199133 2.978753 -6.797898 46.919042 0.565273 2.150097 6.428289 -0.146900 0.000000 -79.821099
7.889208 18.741190 1.930119 88.854821 -87.740647 -28.748314 -8.899682 -0.572633 2.238432 -14.250000 -7.940618 -94.266631 -3.037742 4.357253 39.533906 1.182347 7.464410 13.316535 4.023600 -0.000000 -59.549500 9.486511 1.503565 3.942206 4.657889 -0.270262 -101.287312 3.245463 -6.657786 45.208464 0.778321 2.977774 6.424457 0.096300 -0.000000 -79.801200
7.764318 18.670787 1.911098 93.994750 -87.717178 -33.291168 -8.898249 -0.520760 2.328626 -14.249980 -8.452376 -94.965049 -3.374215 4.212816 37.498574 0.972300 6.614581 13.487976 3.745100 -0.000000 -60.273000 9.527289 1.496858 4.151061 4.136937 0.049836 -102.277397 3.526461 -6.496087 43.415065 0.994291 3.794468 6.497719 0.342000 -0.000000 -79.857101
7.636921 18.589276 1.892562 98.258407 -87.702806 -36.986435 -8.899251 -0.472140 2.446498 -14.179597 -8.936099 -95.609816 -3.707248 4.036205 35.383496 0.760996 5.795580 13.828021 3.487000 0.000001 -61.194700 9.578393 1.485053 4.350792 3.731437 0.343202 -103.178018 3.813997 -6.319158 41.567319 1.206388 4.563027 6.748634 0.585600 0.000000 -80.013300
7.507578 18.497442 1.874527 101.718347 -87.697252 -39.925449 -8.903629 -0.432584 2.582417 -14.061830 -9.378384 -96.192581 -4.027724 3.833818 33.221385 0.550525 5.023979 14.417609 3.255400 0.000000 -62.150300 9.636976 1.467475 4.532731 3.462219 0.608886 -103.993791 4.097130 -6.136444 39.713566 1.409354 5.257394 7.271126 0.829699 0.000000 -80.245699
7.376458 18.395787 1.857336 104.414378 -87.704568 -42.161278 -8.913415 -0.407356 2.726325 -13.915463 -9.765294 -96.703088 -4.325846 3.613566 31.045466 0.343211 4.311609 15.334761 3.051300 -0.000001 -63.113400 9.699211 1.442766 4.687711 3.351372 0.852698 -104.720630 4.366815 -5.957000 37.893132 1.598224 5.855696 8.157922 1.079500 -0.000000 -80.654100
7.243844 18.284869 1.841676 106.422071 -87.738546 -43.787297 -8.931035 -0.403025 2.867396 -13.750858 -10.076615 -97.129029 -4.591212 3.383647 28.884995 0.142613 3.666929 16.651622 2.871500 0.000000 -64.426500 9.758648 1.407695 4.806560 3.423016 1.092476 -105.341965 4.617484 -5.787464 36.131619 1.768533 6.344783 9.485199 1.342200 0.000000 -81.346700
7.109924 18.164886 1.827326 108.019016 -87.792892 -45.107988 -8.952066 -0.417557 2.988556 -13.608956 -10.302329 -97.434569 -4.819568 3.156189 26.798967 -0.049911 3.066137 18.334654 2.691099 -0.000000 -65.743199 9.811617 1.368393 4.877437 3.677287 1.322136 -105.841879 4.839813 -5.639615 34.497459 1.918286 6.741432 11.267445 1.631300 -0.000000 -82.252500
6.974914 18.035803 1.814433 109.358894 -87.869581 -46.304193 -8.972715 -0.450000 3.076986 -13.516418 -10.432619 -97.596622 -5.007077 2.943864 24.854960 -0.231960 2.477537 20.312426 2.480600 -0.000000 -66.955800 9.851379 1.326894 4.894781 4.108717 1.542163 -106.195790 5.029035 -5.519926 33.034868 2.044416 7.066387 13.487736 1.957800 0.000001 -83.343200
6.838842 17.897307 1.803332 110.473864 -87.974141 -47.424323 -8.989699 -0.501124 3.125588 -13.468246 -10.465062 -97.594416 -5.147911 2.752839 23.105216 -0.396741 1.887447 22.479347 2.221600 -0.000001 -68.135500 9.869532 1.283886 4.850664 4.712443 1.749868 -106.377407 5.184132 -5.432564 31.785287 2.145196 7.354444 16.074016 2.333300 -0.000000 -84.509200
6.701718 17.748336 1.793485 111.445308 -88.092943 -48.561088 -8.996814 -0.562273 3.126428 -13.489611 -10.414834 -97.426142 -5.243913 2.597181 21.646442 -0.542688 1.261743 24.632652 1.888500 0.000001 -69.010201 9.862889 1.246130 4.749083 5.430215 1.922795 -106.376992 5.297575 -5.377607 30.793935 2.216027 7.628048 18.894452 2.758200 -0.000000 -85.759100
6.563749 17.588222 1.785148 111.991164 -88.229023 -49.436017 -8.993336 -0.631745 3.086417 -13.537580 -10.299834 -97.096951 -5.288149 2.478846 20.532029 -0.662082 0.624431 26.582573 1.498300 0.000000 -69.653701 9.825381 1.215463 4.586021 6.237509 2.040147 -106.185744 5.370724 -5.359012 30.110417 2.262114 7.944001 21.759439 3.243700 0.000000 -86.642600
6.424947 17.415367 1.777608 111.871784 -88.372073 -49.792029 -8.978669 -0.699635 3.011443 -13.600803 -10.151562 -96.652378 -5.282576 2.409790 19.856212 -0.755752 -0.008958 28.079339 1.075100 0.000000 -69.912400 9.760046 1.197168 4.378574 7.044021 2.085870 -105.820741 5.396003 -5.370481 29.752817 2.278788 8.276946 24.452953 3.751900 -0.000001 -87.435300
6.285530 17.228659 1.770503 110.586247 -88.519849 -49.104274 -8.955619 -0.758838 2.916664 -13.636234 -10.002760 -96.152479 -5.225088 2.397251 19.694664 -0.823588 -0.584771 28.899048 0.675600 0.000000 -69.696699 9.671944 1.194269 4.137766 7.784885 2.050857 -105.319203 5.369912 -5.417507 29.776199 2.273879 8.626531 26.700954 4.245400 0.000000 -87.709599
6.145801 17.027055 1.763325 107.430256 -88.667606 -46.637072 -8.926700 -0.802658 2.816746 -13.606955 -9.888639 -95.671848 -5.113943 2.447745 20.118336 -0.865345 -1.035780 28.865229 0.368000 0.000000 -69.171300 9.570089 1.209719 3.878680 8.399306 1.937730 -104.728560 5.288759 -5.502645 30.206407 2.251727 8.939916 28.286076 4.655800 -0.000001 -87.859500
6.006179 16.810009 1.755541 101.711960 -88.808441 -41.665782 -8.893316 -0.825906 2.724103 -13.489433 -9.834927 -95.303066 -4.949232 2.569672 21.212016 -0.882274 -1.325465 27.832779 0.194400 0.000000 -68.226400 9.463677 1.244845 3.615634 8.839838 1.766271 -104.114616 5.147958 -5.635240 31.102671 2.220038 9.164888 28.979962 4.909500 -0.000000 -87.640100
5.867234 16.577589 1.746741 92.855029 -88.929601 -33.587252 -8.854655 -0.829034 2.644776 -13.272073 -9.854821 -95.131509 -4.730113 2.767174 23.047494 -0.871102 -1.443868 25.734958 0.163800 0.000000 -66.865400 9.357537 1.300724 3.358497 9.085200 1.563538 -103.541604 4.944594 -5.822575 32.519391 2.183395 9.249735 28.623656 4.942700 -0.000001 -87.036900
5.729806 16.330620 1.736593 80.889329 -89.010945 -22.414880 -8.808113 -0.821367 2.576818 -12.952080 -9.945717 -95.223356 -4.454990 3.038958 25.674117 -0.823405 -1.413234 22.589942 0.245100 0.000000 -65.066800 9.249482 1.378194 3.112142 9.137182 1.358100 -103.064403 4.677931 -6.065772 34.500016 2.141157 9.162024 27.136442 4.721800 -0.000000 -86.119000
